<svg id="Capa_12" data-name="Capa 12" xmlns="http://www.w3.org/2000/svg" viewBox="0 0 269.29 269.29"><defs><style>.cls-1{fill:#838ca8;}.cls-2{fill:#fff;}</style></defs><path class="cls-1" d="M848.25-278.38a134.4,134.4,0,0,0-105.62,51.14,134.06,134.06,0,0,0-29,83.51,134.11,134.11,0,0,0,29,83.51A135.52,135.52,0,0,0,765-37.95a134,134,0,0,0,83.3,28.86,134,134,0,0,0,83.31-28.86A134.42,134.42,0,0,0,982.9-143.73,134.65,134.65,0,0,0,848.25-278.38Z" transform="translate(-713.61 278.38)"/><path class="cls-2" d="M775.08-148.81l-1.16-3h-7.27l-1.17,3H761l7.22-16.82h4.51l7.06,16.82ZM768-155.14h4.66l-2.31-6Z" transform="translate(-713.61 278.38)"/><path class="cls-2" d="M793.82-166.62v17.81h-4.27v-1.68a4.37,4.37,0,0,1-1.65,1.38,5,5,0,0,1-2.19.47,5.93,5.93,0,0,1-3.17-.84,5.65,5.65,0,0,1-2.12-2.36,7.76,7.76,0,0,1-.76-3.52,7.76,7.76,0,0,1,.74-3.46,5.55,5.55,0,0,1,2.09-2.3,6,6,0,0,1,3.12-.82,5.15,5.15,0,0,1,2.25.48,4.85,4.85,0,0,1,1.69,1.37v-6.53Zm-5,13.72a3.49,3.49,0,0,0,.77-2.34,3.46,3.46,0,0,0-.77-2.35,2.54,2.54,0,0,0-2-.89,2.54,2.54,0,0,0-2,.9,3.44,3.44,0,0,0-.78,2.34,3.44,3.44,0,0,0,.78,2.34,2.54,2.54,0,0,0,2,.9A2.52,2.52,0,0,0,788.78-152.9Z" transform="translate(-713.61 278.38)"/><path class="cls-2" d="M817.92-160.62a5.11,5.11,0,0,1,1.27,3.63v8.18h-4.27v-7a2.54,2.54,0,0,0-.58-1.74,2,2,0,0,0-1.56-.63,2.26,2.26,0,0,0-1.79.82,3.22,3.22,0,0,0-.66,2.1v6.41h-4.27v-7a2.49,2.49,0,0,0-.58-1.74,2,2,0,0,0-1.56-.63,2.29,2.29,0,0,0-1.8.82,3.22,3.22,0,0,0-.67,2.1v6.41H797.2v-13h4.25v2.13a4.6,4.6,0,0,1,1.74-1.71,5.09,5.09,0,0,1,2.49-.59,4.72,4.72,0,0,1,2.71.77,4.18,4.18,0,0,1,1.61,2.13,4.66,4.66,0,0,1,1.78-2.17,5.07,5.07,0,0,1,2.75-.73A4.47,4.47,0,0,1,817.92-160.62Z" transform="translate(-713.61 278.38)"/><path class="cls-2" d="M825.8-167.13a2.23,2.23,0,0,1,.64,1.64,2.24,2.24,0,0,1-.64,1.63,2.13,2.13,0,0,1-1.62.65,2.13,2.13,0,0,1-1.62-.65,2.24,2.24,0,0,1-.64-1.63,2.23,2.23,0,0,1,.64-1.64,2.16,2.16,0,0,1,1.62-.64A2.16,2.16,0,0,1,825.8-167.13Zm-3.71,5.34h4.25v13h-4.25Z" transform="translate(-713.61 278.38)"/><path class="cls-2" d="M841.59-160.62a5,5,0,0,1,1.29,3.63v8.18h-4.25v-7a2.45,2.45,0,0,0-.6-1.74,2.12,2.12,0,0,0-1.61-.63,2.44,2.44,0,0,0-1.74.69,2.81,2.81,0,0,0-.8,1.78v6.86H829.6v-13h4.28v2.11a4.6,4.6,0,0,1,1.78-1.7,5.25,5.25,0,0,1,2.51-.58A4.51,4.51,0,0,1,841.59-160.62Z" transform="translate(-713.61 278.38)"/><path class="cls-2" d="M849.49-167.13a2.22,2.22,0,0,1,.63,1.64,2.23,2.23,0,0,1-.63,1.63,2.16,2.16,0,0,1-1.62.65,2.13,2.13,0,0,1-1.62-.65,2.2,2.2,0,0,1-.64-1.63,2.19,2.19,0,0,1,.64-1.64,2.16,2.16,0,0,1,1.62-.64A2.19,2.19,0,0,1,849.49-167.13Zm-3.71,5.34H850v13h-4.25Z" transform="translate(-713.61 278.38)"/><path class="cls-2" d="M857.83-159a1.65,1.65,0,0,0-.89.21.66.66,0,0,0-.34.61.78.78,0,0,0,.53.69,9.42,9.42,0,0,0,1.68.58,21.75,21.75,0,0,1,2.32.8,4.33,4.33,0,0,1,1.59,1.2,3.17,3.17,0,0,1,.67,2.1,3.62,3.62,0,0,1-1.52,3.09,6.57,6.57,0,0,1-4,1.11,10.44,10.44,0,0,1-3.17-.47,8.36,8.36,0,0,1-2.69-1.38l1.35-2.75A9.34,9.34,0,0,0,855.7-152a7.06,7.06,0,0,0,2.3.42,2,2,0,0,0,1-.2.64.64,0,0,0,.37-.59.81.81,0,0,0-.54-.74,9.9,9.9,0,0,0-1.69-.58,19.28,19.28,0,0,1-2.25-.8,4.25,4.25,0,0,1-1.55-1.19,3.12,3.12,0,0,1-.66-2.06,3.62,3.62,0,0,1,1.49-3.09A6.25,6.25,0,0,1,858-162a10.2,10.2,0,0,1,2.79.38,10.2,10.2,0,0,1,2.6,1.13L862-157.69A9.52,9.52,0,0,0,857.83-159Z" transform="translate(-713.61 278.38)"/><path class="cls-2" d="M874.15-149.48a6.75,6.75,0,0,1-1.66.64,8.09,8.09,0,0,1-1.9.22,4.34,4.34,0,0,1-3.1-1.1,4,4,0,0,1-1.19-3.05v-5.57h-1.8v-2.83h1.8v-3.6h4.25v3.6h3.36v2.83h-3.36v4.9c0,.91.37,1.37,1.13,1.37a4.15,4.15,0,0,0,1.65-.44Z" transform="translate(-713.61 278.38)"/><path class="cls-2" d="M882.2-161.36a4.88,4.88,0,0,1,2.44-.6V-158l-.65,0a3.9,3.9,0,0,0-2.45.71,2.66,2.66,0,0,0-1.08,1.93v6.62h-4.27v-13h4.27v2.16A4.73,4.73,0,0,1,882.2-161.36Z" transform="translate(-713.61 278.38)"/><path class="cls-2" d="M896.18-160.72a4.33,4.33,0,0,1,1.51,3.46v8.45h-4.2v-1.46a4.66,4.66,0,0,1-3.91,1.65,4.56,4.56,0,0,1-3.25-1.11,3.84,3.84,0,0,1-1.19-2.94,3.51,3.51,0,0,1,1.28-2.88,5.89,5.89,0,0,1,3.69-1.06h3.38v-.14a1.7,1.7,0,0,0-.64-1.44,2.85,2.85,0,0,0-1.83-.51,7.24,7.24,0,0,0-1.84.27,10.89,10.89,0,0,0-2,.76L886-160.55a17.55,17.55,0,0,1,3-1.06,13,13,0,0,1,3-.35A6.34,6.34,0,0,1,896.18-160.72Zm-3.6,8.73a2,2,0,0,0,.91-1.21v-1.13H891q-1.8,0-1.8,1.35a1.32,1.32,0,0,0,.46,1.06,1.92,1.92,0,0,0,1.29.4A3,3,0,0,0,892.58-152Z" transform="translate(-713.61 278.38)"/><path class="cls-2" d="M906.58-161.36A4.9,4.9,0,0,1,909-162V-158l-.65,0a3.92,3.92,0,0,0-2.45.71,2.73,2.73,0,0,0-1.08,1.93v6.62h-4.27v-13h4.27v2.16A4.73,4.73,0,0,1,906.58-161.36Z" transform="translate(-713.61 278.38)"/><path class="cls-2" d="M916.34-166.62h4.27v17.81h-4.27Z" transform="translate(-713.61 278.38)"/><path class="cls-2" d="M934-160.72a4.33,4.33,0,0,1,1.51,3.46v8.45h-4.2v-1.46a4.68,4.68,0,0,1-3.91,1.65,4.6,4.6,0,0,1-3.26-1.11,3.86,3.86,0,0,1-1.18-2.94,3.48,3.48,0,0,1,1.28-2.88,5.86,5.86,0,0,1,3.68-1.06h3.39v-.14a1.7,1.7,0,0,0-.64-1.44,2.85,2.85,0,0,0-1.83-.51,7.24,7.24,0,0,0-1.84.27,10.89,10.89,0,0,0-2,.76l-1.18-2.88a17.55,17.55,0,0,1,3-1.06,13,13,0,0,1,3-.35A6.35,6.35,0,0,1,934-160.72Zm-3.6,8.73a2,2,0,0,0,.91-1.21v-1.13h-2.55q-1.8,0-1.8,1.35a1.32,1.32,0,0,0,.47,1.06,1.9,1.9,0,0,0,1.29.4A3,3,0,0,0,930.43-152Z" transform="translate(-713.61 278.38)"/><path class="cls-2" d="M789-132.76a4.65,4.65,0,0,0-2.23-.62,4.42,4.42,0,0,0-2.32.64,4.53,4.53,0,0,0-1.64,1.75,5.14,5.14,0,0,0-.6,2.48,5.15,5.15,0,0,0,.6,2.49,4.53,4.53,0,0,0,1.64,1.75,4.33,4.33,0,0,0,2.32.64,5.11,5.11,0,0,0,2.16-.53,6.92,6.92,0,0,0,2-1.44l2.56,2.76a10.22,10.22,0,0,1-3.25,2.29,9,9,0,0,1-3.73.85,8.9,8.9,0,0,1-4.51-1.15,8.38,8.38,0,0,1-3.17-3.14,8.75,8.75,0,0,1-1.15-4.47,8.45,8.45,0,0,1,1.17-4.41,8.44,8.44,0,0,1,3.23-3.1,9.41,9.41,0,0,1,4.6-1.13,9.27,9.27,0,0,1,3.69.78,9.12,9.12,0,0,1,3.1,2.13L791-131.12A6.24,6.24,0,0,0,789-132.76Z" transform="translate(-713.61 278.38)"/><path class="cls-2" d="M804.86-132.31a6.11,6.11,0,0,1,2.5,2.33,6.71,6.71,0,0,1,.88,3.47,6.73,6.73,0,0,1-.88,3.49,6.18,6.18,0,0,1-2.5,2.33,8,8,0,0,1-3.72.82,8,8,0,0,1-3.72-.82,6,6,0,0,1-2.48-2.33,6.73,6.73,0,0,1-.88-3.49,6.71,6.71,0,0,1,.88-3.47,5.94,5.94,0,0,1,2.48-2.33,8,8,0,0,1,3.72-.83A8,8,0,0,1,804.86-132.31Zm-5.74,3.52a3.43,3.43,0,0,0-.76,2.32,3.49,3.49,0,0,0,.76,2.36,2.57,2.57,0,0,0,2,.89,2.57,2.57,0,0,0,2-.89,3.49,3.49,0,0,0,.77-2.36,3.39,3.39,0,0,0-.78-2.32,2.59,2.59,0,0,0-2-.89A2.57,2.57,0,0,0,799.12-128.79Z" transform="translate(-713.61 278.38)"/><path class="cls-2" d="M831.14-131.82a5.07,5.07,0,0,1,1.27,3.63V-120h-4.27v-7a2.49,2.49,0,0,0-.58-1.74,2,2,0,0,0-1.56-.63,2.24,2.24,0,0,0-1.78.82,3.22,3.22,0,0,0-.67,2.1V-120h-4.27v-7a2.53,2.53,0,0,0-.57-1.74,2,2,0,0,0-1.56-.63,2.28,2.28,0,0,0-1.8.82,3.17,3.17,0,0,0-.67,2.1V-120h-4.25v-13h4.25v2.13a4.46,4.46,0,0,1,1.74-1.71,5,5,0,0,1,2.48-.59,4.7,4.7,0,0,1,2.71.77,4.18,4.18,0,0,1,1.61,2.13,4.68,4.68,0,0,1,1.79-2.17,5,5,0,0,1,2.75-.73A4.47,4.47,0,0,1,831.14-131.82Z" transform="translate(-713.61 278.38)"/><path class="cls-2" d="M848-133v13h-4.27v-2.11a4.57,4.57,0,0,1-4.16,2.3,4.38,4.38,0,0,1-3.37-1.35,5.11,5.11,0,0,1-1.26-3.62V-133h4.27v7a2.47,2.47,0,0,0,.57,1.73,1.92,1.92,0,0,0,1.52.62,2.22,2.22,0,0,0,1.78-.82,3.28,3.28,0,0,0,.65-2.11V-133Z" transform="translate(-713.61 278.38)"/><path class="cls-2" d="M863.24-131.82a5.07,5.07,0,0,1,1.28,3.63V-120h-4.25v-7a2.49,2.49,0,0,0-.59-1.74,2.14,2.14,0,0,0-1.61-.63,2.41,2.41,0,0,0-1.74.69,2.82,2.82,0,0,0-.81,1.78V-120h-4.27v-13h4.27v2.11a4.72,4.72,0,0,1,1.79-1.71,5.37,5.37,0,0,1,2.51-.57A4.54,4.54,0,0,1,863.24-131.82Z" transform="translate(-713.61 278.38)"/><path class="cls-2" d="M871.14-138.33a2.22,2.22,0,0,1,.63,1.64,2.23,2.23,0,0,1-.63,1.63,2.21,2.21,0,0,1-1.63.65,2.2,2.2,0,0,1-1.62-.65,2.23,2.23,0,0,1-.63-1.63,2.22,2.22,0,0,1,.63-1.64,2.19,2.19,0,0,1,1.62-.64A2.2,2.2,0,0,1,871.14-138.33ZM867.43-133h4.24v13h-4.24Z" transform="translate(-713.61 278.38)"/><path class="cls-2" d="M888-137.82V-120h-4.27v-1.68a4.42,4.42,0,0,1-1.64,1.38,5,5,0,0,1-2.2.47,5.93,5.93,0,0,1-3.17-.84,5.62,5.62,0,0,1-2.12-2.37,7.82,7.82,0,0,1-.76-3.51,7.63,7.63,0,0,1,.75-3.46,5.42,5.42,0,0,1,2.09-2.3,5.89,5.89,0,0,1,3.11-.82,5.12,5.12,0,0,1,2.25.48,4.76,4.76,0,0,1,1.69,1.37v-6.53Zm-5,13.72a3.49,3.49,0,0,0,.77-2.34,3.46,3.46,0,0,0-.77-2.35,2.53,2.53,0,0,0-2-.89,2.55,2.55,0,0,0-2,.9,3.44,3.44,0,0,0-.78,2.34,3.44,3.44,0,0,0,.78,2.34,2.55,2.55,0,0,0,2,.9A2.51,2.51,0,0,0,883-124.1Z" transform="translate(-713.61 278.38)"/><path class="cls-2" d="M901.46-131.92a4.33,4.33,0,0,1,1.51,3.46V-120h-4.2v-1.46a4.66,4.66,0,0,1-3.91,1.65,4.56,4.56,0,0,1-3.25-1.11,3.84,3.84,0,0,1-1.19-2.94,3.51,3.51,0,0,1,1.28-2.88,5.89,5.89,0,0,1,3.69-1.06h3.38v-.14a1.72,1.72,0,0,0-.63-1.44,2.9,2.9,0,0,0-1.84-.51,7.24,7.24,0,0,0-1.84.27,10.89,10.89,0,0,0-2.05.76l-1.18-2.88a17.55,17.55,0,0,1,3-1.06,12.46,12.46,0,0,1,3-.35A6.34,6.34,0,0,1,901.46-131.92Zm-3.6,8.73a2,2,0,0,0,.91-1.21v-1.13h-2.54q-1.8,0-1.8,1.35a1.32,1.32,0,0,0,.46,1.06,1.93,1.93,0,0,0,1.29.4A3,3,0,0,0,897.86-123.19Z" transform="translate(-713.61 278.38)"/><path class="cls-2" d="M919-137.82V-120h-4.27v-1.68a4.34,4.34,0,0,1-1.64,1.38,5,5,0,0,1-2.2.47,6,6,0,0,1-3.17-.84,5.62,5.62,0,0,1-2.12-2.37,7.82,7.82,0,0,1-.75-3.51,7.63,7.63,0,0,1,.74-3.46,5.42,5.42,0,0,1,2.09-2.3,5.9,5.9,0,0,1,3.12-.82,5.08,5.08,0,0,1,2.24.48,4.76,4.76,0,0,1,1.69,1.37v-6.53Zm-5,13.72a3.44,3.44,0,0,0,.77-2.34,3.41,3.41,0,0,0-.77-2.35,2.53,2.53,0,0,0-2-.89,2.56,2.56,0,0,0-2,.9,3.44,3.44,0,0,0-.78,2.34,3.44,3.44,0,0,0,.78,2.34,2.56,2.56,0,0,0,2,.9A2.51,2.51,0,0,0,913.91-124.1Z" transform="translate(-713.61 278.38)"/></svg>